<?xml version="1.0" encoding="UTF-8"?>
<svg version="1.1" xmlns="http://www.w3.org/2000/svg" width="212" height="302">
<path d="M0 0 C69.96 0 139.92 0 212 0 C212 99.66 212 199.32 212 302 C142.04 302 72.08 302 0 302 C0 202.34 0 102.68 0 0 Z " fill="#000000" transform="translate(0,0)"/>
<path d="M0 0 C17.16 0 34.32 0 52 0 C51.28384444 3.58077781 50.780467 5.82761889 49.31347656 8.97314453 C48.96931702 9.71807159 48.62515747 10.46299866 48.27056885 11.23049927 C47.71124664 12.41964432 47.71124664 12.41964432 47.140625 13.6328125 C46.75436951 14.4652951 46.36811401 15.29777771 45.97015381 16.15548706 C44.73516621 18.81438185 43.49278425 21.4697418 42.25 24.125 C41.42918094 25.88778505 40.60886335 27.65080369 39.7890625 29.4140625 C38.62293769 31.92217585 37.45620517 34.4299747 36.28521729 36.93582153 C33.48115245 42.93931912 30.74236326 48.96680082 28 55 C43.18 55 58.36 55 74 55 C82.8125 75.125 82.8125 75.125 85.57739258 81.44580078 C86.30798278 83.11235848 87.03868802 84.77886575 87.76953125 86.4453125 C88.14283569 87.29988037 88.51614014 88.15444824 88.90075684 89.03491211 C90.44928901 92.56255145 92.01838279 96.03617546 93.7644043 99.47216797 C95 102 95 102 95 104 C94.34 104 93.68 104 93 104 C92.90283691 104.67192383 92.80567383 105.34384766 92.70556641 106.03613281 C91.82683049 109.7274318 90.31719174 113.00493093 88.7109375 116.421875 C88.3759877 117.14591522 88.0410379 117.86995544 87.69593811 118.61593628 C86.9723243 120.17858227 86.24626975 121.74009987 85.51803589 123.30059814 C83.96169535 126.63566701 82.41703112 129.97610156 80.87150574 133.31619263 C80.07607851 135.03480423 79.28002194 136.75312469 78.48335266 138.47116089 C75.06832898 145.83784545 71.69823419 153.22430111 68.34631348 160.61987305 C66.81195629 164.00514519 65.27510395 167.38928408 63.73828125 170.7734375 C63.4324411 171.4469928 63.12660095 172.1205481 62.81149292 172.81451416 C53.84737457 192.54975053 44.81003629 212.25184734 35.76654053 231.95080566 C35.01101 233.59662852 34.25567665 235.24254191 33.50054932 236.8885498 C32.45158519 239.17471915 31.40171303 241.46046919 30.3515625 243.74609375 C30.04085815 244.42359177 29.73015381 245.10108978 29.41003418 245.79911804 C27.98696794 248.89375189 26.52366773 251.95266455 25 255 C7.84 255 -9.32 255 -27 255 C-26.14890763 249.89344576 -24.92918183 246.23003076 -22.7109375 241.69921875 C-22.37612366 240.99910675 -22.04130981 240.29899475 -21.6963501 239.57766724 C-20.97369019 238.06796694 -20.24774791 236.55983431 -19.51885986 235.0531311 C-17.5535043 230.98855432 -15.61406214 226.91162212 -13.671875 222.8359375 C-13.27517609 222.00494034 -12.87847717 221.17394318 -12.46975708 220.31776428 C-8.75721704 212.52622685 -5.17390986 204.67961032 -1.625 196.8125 C4.00897041 184.33999872 9.73254461 171.91133006 15.5 159.5 C22.22285028 145.03156273 28.88194821 130.53620876 35.45703125 116 C35.89830605 115.02520439 35.89830605 115.02520439 36.34849548 114.03071594 C37.13236037 112.29845414 37.91498565 110.56563156 38.69750977 108.83276367 C39.75428419 106.53440311 40.86869691 104.26260619 42 102 C30.12 102.33 18.24 102.66 6 103 C3.52777203 108.3526431 1.05574963 113.70538022 -1.41577148 119.05834961 C-2.25452173 120.87480986 -3.09338636 122.6912173 -3.93237305 124.50756836 C-5.14663166 127.13641294 -6.36046224 129.76545481 -7.57421875 132.39453125 C-7.94214035 133.1908345 -8.31006195 133.98713776 -8.68913269 134.80757141 C-11.48320624 140.86129973 -14.24086542 146.92990393 -17 153 C-34.49 153 -51.98 153 -70 153 C-68.47635801 148.42907404 -66.79988863 144.22486148 -64.734375 139.90625 C-64.41849426 139.23766968 -64.10261353 138.56908936 -63.77716064 137.88024902 C-62.77131476 135.75196255 -61.76110634 133.6257918 -60.75 131.5 C-55.95682956 121.41207551 -51.33820177 111.2931247 -47 101 C-55.58 101 -64.16 101 -73 101 C-77.80475247 91.57600675 -82.29143666 82.08152341 -86.50952148 72.38183594 C-87.45586498 70.20781031 -88.41024222 68.03742594 -89.36523438 65.8671875 C-89.97182658 64.47937306 -90.57796458 63.09135997 -91.18359375 61.703125 C-91.46786728 61.0574054 -91.75214081 60.41168579 -92.04502869 59.74639893 C-94 55.23006642 -94 55.23006642 -94 53 C-70.64234172 52.87563501 -47.34139965 53.08216207 -24 54 C-23.83423965 53.46292923 -23.66847931 52.92585846 -23.49769592 52.37251282 C-21.60915866 46.46228154 -19.25863717 40.90382265 -16.62109375 35.29296875 C-16.20835709 34.40515213 -15.79562042 33.51733551 -15.37037659 32.60261536 C-14.06395593 29.79543546 -12.75078434 26.9914743 -11.4375 24.1875 C-10.55230081 22.28731129 -9.66753124 20.38692238 -8.78320312 18.48632812 C-7.16587114 15.01467751 -5.54748704 11.54353361 -3.92358398 8.07495117 C-3.4375193 7.03645271 -3.4375193 7.03645271 -2.94163513 5.97697449 C-1.98676684 3.97221681 -0.99305859 1.98611718 0 0 Z " fill="#B35AA1" transform="translate(105,19)"/>
<path d="M0 0 C17.16 0 34.32 0 52 0 C51.28384444 3.58077781 50.780467 5.82761889 49.31347656 8.97314453 C48.96931702 9.71807159 48.62515747 10.46299866 48.27056885 11.23049927 C47.71124664 12.41964432 47.71124664 12.41964432 47.140625 13.6328125 C46.75436951 14.4652951 46.36811401 15.29777771 45.97015381 16.15548706 C44.73516621 18.81438185 43.49278425 21.4697418 42.25 24.125 C41.42918094 25.88778505 40.60886335 27.65080369 39.7890625 29.4140625 C38.59967974 31.97172185 37.40982179 34.52914898 36.21765137 37.08551025 C33.44078871 43.04035124 30.70170591 49.01064652 28 55 C21.23705367 54.90768917 14.47446482 54.80037785 7.71191406 54.68261719 C5.4111878 54.64432583 3.11040165 54.60947326 0.80957031 54.578125 C-2.49696262 54.5324783 -5.80308312 54.47448253 -9.109375 54.4140625 C-10.13867126 54.40251129 -11.16796753 54.39096008 -12.22845459 54.37905884 C-13.66949554 54.3492543 -13.66949554 54.3492543 -15.13964844 54.31884766 C-16.40539703 54.29886215 -16.40539703 54.29886215 -17.69671631 54.2784729 C-20.18454361 53.9776882 -21.84315599 53.24621362 -24 52 C-22.03067785 47.64723316 -20.05909666 43.29549818 -18.08569336 38.94458008 C-17.41910322 37.47413726 -16.75306006 36.00344632 -16.08764648 34.5324707 C-10.85107263 22.95793275 -5.43965892 11.48372438 0 0 Z " fill="#7A509F" transform="translate(105,19)"/>
</svg>
